<svg xmlns="http://www.w3.org/2000/svg" xmlns:xlink="http://www.w3.org/1999/xlink" width="69.829" height="80.063" viewBox="0 0 69.829 80.063"><defs><linearGradient id="a" x1="0.19" y1="0.863" x2="1.071" y2="0.137" gradientUnits="objectBoundingBox"><stop offset="0" stop-color="#00fee2"/><stop offset="1" stop-color="#ab5eec"/></linearGradient><linearGradient id="b" x1="-0.071" y1="0.863" x2="0.81" y2="0.137" xlink:href="#a"/><linearGradient id="c" y1="0.5" x2="1" y2="0.5" gradientUnits="objectBoundingBox"><stop offset="0" stop-color="#fff"/><stop offset="0.373" stop-color="#fdfdfd"/><stop offset="0.507" stop-color="#f6f6f6"/><stop offset="0.603" stop-color="#eaeaea"/><stop offset="0.68" stop-color="#d9d9d9"/><stop offset="0.746" stop-color="#c3c3c3"/><stop offset="0.805" stop-color="#a8a8a8"/><stop offset="0.858" stop-color="#878787"/><stop offset="0.907" stop-color="#626262"/><stop offset="0.952" stop-color="#373737"/><stop offset="0.993" stop-color="#090909"/><stop offset="1"/></linearGradient><linearGradient id="d" x1="5.734" y1="-2.238" x2="6.734" y2="-2.238" xlink:href="#c"/><linearGradient id="e" y1="0.5" x2="1" y2="0.5" gradientUnits="objectBoundingBox"><stop offset="0" stop-color="#fff"/><stop offset="0.162" stop-color="#fbfbfb"/><stop offset="0.293" stop-color="#f1f1f1"/><stop offset="0.412" stop-color="#e0e0e0"/><stop offset="0.525" stop-color="#c9c9c9"/><stop offset="0.633" stop-color="#aaa"/><stop offset="0.738" stop-color="#848484"/><stop offset="0.84" stop-color="#575757"/><stop offset="0.937" stop-color="#242424"/><stop offset="1"/></linearGradient><linearGradient id="f" y1="0.5" x2="1" y2="0.5" gradientUnits="objectBoundingBox"><stop offset="0"/><stop offset="0.063" stop-color="#242424"/><stop offset="0.16" stop-color="#575757"/><stop offset="0.262" stop-color="#848484"/><stop offset="0.367" stop-color="#aaa"/><stop offset="0.475" stop-color="#c9c9c9"/><stop offset="0.588" stop-color="#e0e0e0"/><stop offset="0.707" stop-color="#f1f1f1"/><stop offset="0.838" stop-color="#fbfbfb"/><stop offset="1" stop-color="#fff"/></linearGradient></defs><path d="M40.438,42.862H29.317a13.546,13.546,0,1,1,0-27.092h1.216V8H36.6V15.77h3.839a7.885,7.885,0,0,0,0-15.77H29.317a29.316,29.316,0,0,0,0,58.633H40.438a7.885,7.885,0,0,0,0-15.771Z" transform="translate(-0.001)" fill="url(#a)"/><path d="M74.189,54.986H63.068a7.885,7.885,0,0,0,0,15.771H74.189a13.546,13.546,0,0,1,0,27.093H70.274v7.777H64.208V97.85h-1.14a7.884,7.884,0,1,0,0,15.769H74.189a29.316,29.316,0,0,0,0-58.632Z" transform="translate(-33.676 -33.555)" fill="url(#b)"/><path d="M77.129,55.365a25.32,25.32,0,0,1-2.716,50.493H55.188c0,.036-.005.071-.005.107a7.885,7.885,0,0,0,7.885,7.884H74.189a29.316,29.316,0,0,0,2.94-58.485Z" transform="translate(-33.676 -33.787)" opacity="0.6" fill="url(#c)" style="mix-blend-mode:multiply;isolation:isolate"/><path d="M26.375,58.674A25.32,25.32,0,0,1,29.091,8.18H48.316c0-.036.005-.071.005-.107A7.885,7.885,0,0,0,40.437.189H29.316a29.316,29.316,0,0,0-2.94,58.485Z" transform="translate(0 -0.115)" opacity="0.6" fill="url(#d)" style="mix-blend-mode:multiply;isolation:isolate"/><path d="M66.626,75.49H55.2a7.883,7.883,0,0,0,7.88,7.779H74.2A13.561,13.561,0,0,1,87.743,96.815h0A21.172,21.172,0,0,0,66.626,75.49Z" transform="translate(-33.684 -46.068)" opacity="0.6" fill="url(#e)" style="mix-blend-mode:multiply;isolation:isolate"/><path d="M65.166,89.982H54.045A13.562,13.562,0,0,1,40.523,77.214,21.156,21.156,0,0,0,61.62,97.76H73.045c0-.14-.012-.277-.021-.415-.007-.109-.009-.219-.021-.326-.017-.157-.045-.31-.071-.465-.018-.1-.03-.21-.052-.313-.033-.156-.076-.309-.118-.461-.026-.1-.048-.194-.078-.289-.05-.159-.111-.313-.171-.468-.032-.083-.06-.168-.094-.25-.07-.165-.151-.324-.233-.483-.034-.066-.063-.134-.1-.2-.095-.173-.2-.339-.306-.5-.03-.046-.056-.1-.086-.141-.124-.182-.256-.356-.394-.526-.019-.025-.037-.051-.057-.075q-.237-.286-.5-.549l-.005-.006A7.86,7.86,0,0,0,65.166,89.982Z" transform="translate(-24.729 -47.12)" opacity="0.6" fill="url(#f)" style="mix-blend-mode:multiply;isolation:isolate"/></svg>